<svg width="31" height="31" viewBox="0 0 31 31" fill="none" xmlns="http://www.w3.org/2000/svg">
<g filter="url(#filter0_d_360_423)">
<circle cx="15.3093" cy="15.3093" r="12.5" transform="rotate(15 15.3093 15.3093)" fill="#F3C887"/>
</g>
<g filter="url(#filter1_i_360_423)">
<path d="M19.3803 18.8034C18.7149 18.9708 18.0046 18.9623 17.3276 18.7788C16.7612 18.6226 16.2286 18.3658 15.7601 18.0231C15.2175 18.4365 14.8348 19.0023 14.6652 19.6417L14.228 21.2734C14.2119 21.3341 14.1823 21.3906 14.1412 21.4393C14.1 21.4879 14.0481 21.5278 13.9887 21.5564C13.9293 21.585 13.8636 21.6016 13.7958 21.6054C13.728 21.6091 13.6595 21.5998 13.5945 21.5781C13.4731 21.5349 13.3717 21.4515 13.3108 21.3444C13.2498 21.2373 13.2338 21.1146 13.266 21.0008L13.4504 20.3125L11.6919 17.551C11.3136 17.5766 10.9305 17.5404 10.5599 17.444C10.0505 17.3087 9.58506 17.0471 9.215 16.688C8.09604 15.603 7.83976 13.7274 8.53765 11.6709C8.57356 11.5645 8.65098 11.4757 8.75521 11.4214C8.85944 11.3671 8.98322 11.3511 9.10305 11.3764C11.4195 11.8649 13.0854 13.0045 13.5591 14.4237C13.7455 14.9801 13.734 15.5699 13.5262 16.1038C13.511 16.1454 13.483 16.1816 13.4454 16.2078C13.4079 16.2341 13.3625 16.2493 13.3147 16.2518C13.2669 16.2542 13.2187 16.2437 13.1761 16.2215C13.1334 16.1994 13.098 16.1665 13.0743 16.1269L12.2134 14.7042C12.1434 14.6002 12.0335 14.5239 11.9072 14.4917C11.7809 14.4594 11.6481 14.4737 11.5372 14.5315C11.4263 14.5892 11.346 14.6859 11.3134 14.8009C11.2809 14.9159 11.2987 15.0401 11.363 15.147L13.7961 19.0755C13.8113 19.0333 13.827 18.9913 13.8433 18.95C14.1688 18.1576 14.7693 17.4968 15.5534 17.0681L19.3997 14.9283C19.5125 14.8696 19.5936 14.7707 19.6251 14.6533C19.6566 14.5359 19.636 14.4096 19.5677 14.3023C19.4994 14.195 19.3891 14.1154 19.2611 14.081C19.133 14.0466 18.9977 14.0603 18.8848 14.119L15.1589 16.1938C15.1216 16.2146 15.0785 16.2255 15.0341 16.2254C14.9898 16.2253 14.9457 16.2141 14.9066 16.1931C14.8674 16.1721 14.8346 16.142 14.8116 16.1059C14.7885 16.0698 14.776 16.029 14.7754 15.9879C14.7485 14.944 15.1326 14.015 15.9004 13.3348C17.4155 11.9925 20.158 11.7915 23.2372 12.7968C23.3536 12.8348 23.4528 12.9106 23.5159 13.0097C23.5791 13.1088 23.6017 13.2244 23.5796 13.3346C22.9931 16.2476 21.4245 18.2919 19.3803 18.8034Z" fill="#725933"/>
</g>
<defs>
<filter id="filter0_d_360_423" x="1.80621" y="2.80621" width="26.0062" height="26.0062" filterUnits="userSpaceOnUse" color-interpolation-filters="sRGB">
<feFlood flood-opacity="0" result="BackgroundImageFix"/>
<feColorMatrix in="SourceAlpha" type="matrix" values="0 0 0 0 0 0 0 0 0 0 0 0 0 0 0 0 0 0 127 0" result="hardAlpha"/>
<feOffset dx="-1" dy="1"/>
<feComposite in2="hardAlpha" operator="out"/>
<feColorMatrix type="matrix" values="0 0 0 0 0.447059 0 0 0 0 0.34902 0 0 0 0 0.2 0 0 0 1 0"/>
<feBlend mode="normal" in2="BackgroundImageFix" result="effect1_dropShadow_360_423"/>
<feBlend mode="normal" in="SourceGraphic" in2="effect1_dropShadow_360_423" result="shape"/>
</filter>
<filter id="filter1_i_360_423" x="8.15022" y="11.3647" width="15.4376" height="10.2415" filterUnits="userSpaceOnUse" color-interpolation-filters="sRGB">
<feFlood flood-opacity="0" result="BackgroundImageFix"/>
<feBlend mode="normal" in="SourceGraphic" in2="BackgroundImageFix" result="shape"/>
<feColorMatrix in="SourceAlpha" type="matrix" values="0 0 0 0 0 0 0 0 0 0 0 0 0 0 0 0 0 0 127 0" result="hardAlpha"/>
<feOffset dy="0.5"/>
<feComposite in2="hardAlpha" operator="arithmetic" k2="-1" k3="1"/>
<feColorMatrix type="matrix" values="0 0 0 0 0 0 0 0 0 0 0 0 0 0 0 0 0 0 0.25 0"/>
<feBlend mode="normal" in2="shape" result="effect1_innerShadow_360_423"/>
</filter>
</defs>
</svg>
